<?xml version="1.0" encoding="UTF-8" standalone="no"?>
<svg width="612px" height="612px" viewBox="0 0 612 612" version="1.1" xmlns="http://www.w3.org/2000/svg" xmlns:xlink="http://www.w3.org/1999/xlink" xmlns:sketch="http://www.bohemiancoding.com/sketch/ns">
    <!-- Generator: Sketch 3.3.2 (12043) - http://www.bohemiancoding.com/sketch -->
    <title>zoom-reset</title>
    <desc>Created with Sketch.</desc>
    <defs></defs>
    <g id="Page-1" stroke="none" stroke-width="1" fill="none" fill-rule="evenodd" sketch:type="MSPage">
        <g id="zoom-reset" sketch:type="MSLayerGroup" fill="#000000">
            <path d="M598.221,531.593 L487.641,421.051 C517.955,377.608 535.869,324.902 535.869,267.946 C535.869,119.97 415.911,0.012 267.935,0.012 C119.959,0.012 0,119.97 0,267.946 C0,415.922 119.958,535.88 267.934,535.88 C324.89,535.88 377.596,517.967 421.039,487.652 L531.581,598.194 C549.992,616.604 579.81,616.604 598.221,598.194 C616.632,579.783 616.593,550.004 598.221,531.593 L598.221,531.593 Z M268.381,459.774 C162.7,459.774 77,374.074 77,268.393 C77,162.712 162.701,77.012 268.381,77.012 C374.062,77.012 459.762,162.713 459.762,268.393 C459.762,374.074 374.062,459.774 268.381,459.774 Z M143,233 L143,143 L233,143 L143,233 Z M393,233 L393,143 L303,143 L393,233 Z M143,303 L143,393 L233,393 L143,303 Z M393,303 L393,393 L303,393 L393,303 Z" id="lupa" sketch:type="MSShapeGroup"></path>
        </g>
    </g>
</svg>